# xmcd CD database file
#
# Track frame offsets:
#	150
#	31242
#	62155
#	82503
#	100525
#	117658
#	139742
#	155668
#	179975
#	193596
#	211904
#	264179
#	279110
#	303532
#	326514
#
# Disc length: 4610 seconds
#
# Revision: 0
# Processed by: cddbd v1.5.1PL0 Copyright (c) Steve Scherf et al.
# Submitted via: CDex 1.51
#
DISCID=cc12000f
DTITLE=Groovy Grufties - UltraSchall
DYEAR=2004
DGENRE=Jazz
TTITLE0=Killer Joe
TTITLE1=Caravan
TTITLE2=Line For Lions
TTITLE3=Lady Bird
TTITLE4=Fly Me To The Moon
TTITLE5=Blue Bossa
TTITLE6=How High The Moon
TTITLE7=Water Melon Man
TTITLE8=Jumpin' With Symphony Sid
TTITLE9=Thema In Moll
TTITLE10=In A Gadda Da Vida
TTITLE11=Softly As A Morning Sunrise
TTITLE12=You Go To My Head
TTITLE13=Cantaloupe Island
TTITLE14=Night And Day
EXTD=YEAR: 2004
EXTT0=
EXTT1=
EXTT2=
EXTT3=
EXTT4=
EXTT5=
EXTT6=
EXTT7=
EXTT8=
EXTT9=
EXTT10=
EXTT11=
EXTT12=
EXTT13=
EXTT14=
PLAYORDER=
